<svg width="49" height="32" viewBox="0 0 49 32" fill="none" xmlns="http://www.w3.org/2000/svg">
<path fill-rule="evenodd" clip-rule="evenodd" d="M20.3719 21.9631C21.7501 21.9631 23.0956 21.9446 24.4401 21.9719C24.9883 21.9831 25.2914 21.7719 25.5608 21.293C27.9975 16.9601 30.4609 12.6423 32.9177 8.3207C32.9559 8.25356 33.0094 8.19522 33.0951 8.07973C33.7251 9.41311 34.3308 10.6949 34.9505 12.0063C34.7652 12.0989 34.607 12.1787 34.4483 12.2573C30.1462 14.3898 27.7911 19.3869 28.9208 23.9856C29.8616 27.8155 33.4434 31.0026 37.3803 31.4612C41.1902 31.905 44.4585 30.779 46.9009 27.7799C49.1874 24.9724 49.4603 21.7412 48.3431 18.3838C47.001 14.3508 43.9963 12.2887 39.95 11.5548C38.6484 11.3187 37.3386 11.3458 36.0148 11.6427C35.5184 10.5903 35.0443 9.54779 34.5387 8.52055C33.235 5.87217 31.9078 3.23522 30.6143 0.58185C30.3802 0.101341 30.0836 -0.0648717 29.5658 0.0221112C28.6601 0.174528 27.7478 0.288973 26.8378 0.414848C26.4468 0.468983 26.1161 0.586317 26.1506 1.07116C26.1779 1.45549 26.4645 1.59424 27.0161 1.51685C27.7635 1.41187 28.5102 1.29729 29.2604 1.21832C29.4194 1.20164 29.6864 1.27154 29.7453 1.38427C30.5877 2.99543 31.4028 4.62077 32.2664 6.32522C27.5109 6.76644 22.8313 7.2007 18.1127 7.63851C18.1127 7.09953 18.1127 6.59826 18.1127 6.01145C18.5003 6.01145 18.9017 6.01185 19.3031 6.01132C19.8123 6.01079 20.322 6.02288 20.8305 6.00396C21.1801 5.99095 21.4383 5.82658 21.4333 5.43345C21.428 5.03821 21.1642 4.89657 20.8131 4.88317C20.5179 4.87187 20.2218 4.87962 19.9263 4.87949C18.2838 4.87936 16.6415 4.87936 14.9991 4.87962C14.8677 4.87962 14.7354 4.87279 14.6051 4.8854C14.2717 4.91786 14.0378 5.07566 14.0349 5.43778C14.0321 5.79951 14.2657 5.98373 14.5961 5.99857C15.1534 6.02354 15.7125 6.00948 16.271 6.01132C16.4812 6.01198 16.6913 6.01145 16.9327 6.01145C16.9327 6.55963 16.9327 7.0605 16.9327 7.62155C16.7504 7.62155 16.5782 7.6276 16.4063 7.62064C13.3234 7.49463 10.267 7.6138 7.29975 8.58336C4.93637 9.35543 2.85128 10.5882 1.06931 12.3274C0.833191 12.5579 0.634785 12.7934 0.829906 13.1427C1.03357 13.5074 1.45021 13.5218 1.82338 13.1597C2.91526 12.1004 4.12909 11.2151 5.48678 10.5246C7.92165 9.28619 10.5364 8.80909 13.234 8.71147C14.358 8.67074 15.4846 8.70464 16.7428 8.70464C16.0314 10.0755 15.3998 11.2922 14.7602 12.5247C11.3948 11.0655 8.12727 11.1804 4.97027 12.938C2.56457 14.2775 0.966553 16.2886 0.293419 18.992C-1.0874 24.5383 2.55117 30.2401 8.12714 31.3672C13.7377 32.5012 20.2412 28.8005 20.3719 21.9631ZM36.5005 12.7224C36.7069 12.6834 36.8642 12.648 37.0232 12.6243C38.6019 12.3888 40.125 12.6446 41.6273 13.1285C47.7163 15.0908 49.2622 22.295 46.5476 26.3896C44.6336 29.2768 41.8291 30.5737 38.4348 30.4325C34.9448 30.2873 32.3236 28.5565 30.6946 25.4729C28.6889 21.6765 29.9906 16.7054 33.6108 14.0733C34.1561 13.6767 34.7634 13.3656 35.3839 12.9897C36.1886 14.8175 36.9461 16.5382 37.7082 18.2697C37.5065 18.3743 37.3446 18.4515 37.1892 18.5398C35.9011 19.2704 35.2433 20.7427 35.5767 22.1446C35.975 23.82 37.5211 24.8655 39.2907 24.6559C40.8678 24.4692 42.0464 23.1682 42.0747 21.5826C42.1051 19.8632 40.8411 18.3697 39.1774 18.1298C39.0204 18.1072 38.8121 17.9702 38.7497 17.8314C37.9968 16.1578 37.2669 14.4736 36.5005 12.7224ZM19.1832 21.9959C19.2833 25.737 16.6763 29.0237 12.7978 30.1077C8.63682 31.2708 4.3313 29.4925 2.21533 25.7367C0.290142 22.3197 0.948162 17.8683 3.77589 15.191C6.91425 12.2194 11.5818 12.1531 14.1513 13.5591C13.2107 15.147 12.2707 16.7333 11.3408 18.3026C9.21246 17.8335 7.54099 18.7044 7.01896 20.5088C6.54029 22.1631 7.42353 23.9097 9.04243 24.4924C9.88152 24.7946 10.7231 24.7694 11.5409 24.4208C12.6149 23.9627 13.2452 23.1301 13.4569 21.9959C15.3852 21.9959 17.2684 21.9959 19.1832 21.9959ZM24.9791 20.0191C22.8367 16.2431 20.7218 12.5155 18.5776 8.73643C23.0643 8.32097 27.5356 7.90707 32.1014 7.48438C29.6925 11.7242 27.3392 15.8659 24.9791 20.0191ZM20.2883 20.8038C19.8292 17.5804 18.4761 14.9106 15.729 13.0751C16.3673 11.8707 16.9885 10.6987 17.6753 9.40287C19.837 13.223 21.9559 16.9671 24.127 20.8038C22.7522 20.8038 21.5447 20.8038 20.2883 20.8038ZM15.1703 14.0504C17.577 15.6957 18.714 18.0176 19.1629 20.8279C17.2605 20.8279 15.4093 20.8303 13.5581 20.8192C13.4822 20.8188 13.3813 20.7063 13.3359 20.6223C13.02 20.0384 12.7154 19.4483 12.3626 18.7747C13.2394 17.2993 14.1843 15.7094 15.1703 14.0504ZM39.3895 19.3386C40.5279 19.7802 41.1486 20.9165 40.9231 21.9938C40.726 22.9355 39.8261 23.5966 38.77 23.5756C37.7161 23.5545 36.8303 22.7847 36.6536 21.7363C36.4786 20.6986 37.0691 19.7527 38.1682 19.3591C38.4358 19.9861 38.7057 20.6156 38.973 21.2461C39.1283 21.6123 39.3866 21.8278 39.7808 21.6558C40.1567 21.4917 40.1602 21.1607 40.017 20.8198C39.8222 20.3559 39.6244 19.8928 39.3895 19.3386ZM12.2482 21.9711C12.0694 23.0809 10.8883 23.7883 9.74894 23.5327C8.46706 23.2452 7.7235 21.9782 8.11427 20.7473C8.45747 19.6657 9.7111 18.9806 10.7069 19.3708C10.4035 19.8978 10.0982 20.4166 9.80426 20.9416C9.45304 21.5687 9.67496 21.9581 10.3921 21.9691C10.9974 21.9785 11.6032 21.9711 12.2482 21.9711ZM12.2337 20.7867C11.8179 20.7867 11.5235 20.7867 11.1727 20.7867C11.366 20.4668 11.5234 20.2064 11.722 19.878C11.9068 20.2065 12.0546 20.4686 12.2337 20.7867Z" fill="white"/>
<path fill-rule="evenodd" clip-rule="evenodd" d="M45.7777 20.3772C45.5763 22.9809 45.1747 25.4729 42.5174 26.838C42.5405 26.8766 42.5638 26.9151 42.5871 26.9536C42.8117 26.8926 43.0494 26.8606 43.2591 26.766C44.4874 26.2123 45.2323 25.2245 45.6572 23.9837C46.0584 22.8125 46.0858 21.6119 45.7777 20.3772Z" fill="white"/>
<path fill-rule="evenodd" clip-rule="evenodd" d="M4.54224 17.9784C2.95171 18.5899 2.29842 21.6375 3.47216 23.0406C3.1149 21.1981 3.41685 19.502 4.54224 17.9784Z" fill="white"/>
</svg>
