<svg width="22" height="22" viewBox="0 0 22 22" fill="none" xmlns="http://www.w3.org/2000/svg">
<path d="M14.1501 11.65C17.74 11.65 20.6501 10.7546 20.6501 9.64999C20.6501 8.54542 17.74 7.64999 14.1501 7.64999C10.5603 7.64999 7.65015 8.54542 7.65015 9.64999C7.65015 10.7546 10.5603 11.65 14.1501 11.65Z" stroke="white" stroke-width="1.3" stroke-linecap="round" stroke-linejoin="round"/>
<path d="M20.6501 14.15C20.6501 15.255 17.7401 16.15 14.1501 16.15C10.5601 16.15 7.65015 15.255 7.65015 14.15" stroke="white" stroke-width="1.3" stroke-linecap="round" stroke-linejoin="round"/>
<path d="M20.6501 9.64999V18.45C20.6501 19.665 17.7401 20.65 14.1501 20.65C10.5601 20.65 7.65015 19.665 7.65015 18.45V9.64999" stroke="white" stroke-width="1.3" stroke-linecap="round" stroke-linejoin="round"/>
<path d="M7.15015 4.64999C10.74 4.64999 13.6501 3.75456 13.6501 2.64999C13.6501 1.54542 10.74 0.649994 7.15015 0.649994C3.5603 0.649994 0.650146 1.54542 0.650146 2.64999C0.650146 3.75456 3.5603 4.64999 7.15015 4.64999Z" stroke="white" stroke-width="1.3" stroke-linecap="round" stroke-linejoin="round"/>
<path d="M4.65015 9.64999C2.75815 9.41999 1.02015 8.82499 0.650146 7.64999M4.65015 14.65C2.75815 14.42 1.02015 13.825 0.650146 12.65" stroke="white" stroke-width="1.3" stroke-linecap="round" stroke-linejoin="round"/>
<path d="M4.65015 19.65C2.75815 19.42 1.02015 18.824 0.650146 17.65V2.64999M13.6501 4.64999V2.64999" stroke="white" stroke-width="1.3" stroke-linecap="round" stroke-linejoin="round"/>
</svg>
