<svg width="20" height="20" viewBox="0 0 20 20" fill="none" xmlns="http://www.w3.org/2000/svg">
<path fill-rule="evenodd" clip-rule="evenodd" d="M9.01402 0.299988C14.3783 0.485647 18.5651 4.41828 18.9599 9.6873C19.4352 16.0307 12.8455 20.7662 6.76704 18.4207C2.95483 16.9503 0.609339 14.2954 0.320948 10.0859C0.035032 5.92584 2.70235 1.96015 6.60367 0.716227C7.30051 0.493435 8.21729 0.299988 9.01402 0.299988ZM3.74202 15.3796C5.1518 12.5997 6.19397 11.7209 8.53823 11.4436C9.18927 11.3656 9.88488 11.3855 10.5236 11.5278C11.6957 11.789 12.8913 12.06 13.983 12.539C15.1898 13.0675 15.5042 14.3189 15.8322 15.7324C16.331 14.9712 16.7865 14.4092 17.0996 13.7768C18.7235 10.503 18.0428 6.71056 15.3866 4.01107C10.9964 -0.449712 4.44383 0.547888 2.03644 6.04465C0.588299 9.35558 1.27894 13.252 3.74202 15.3796ZM9.60268 12.2086C6.95022 12.3732 5.56645 13.2569 4.74955 15.5356C4.66415 15.7732 4.74955 16.2337 4.93025 16.3809C7.47998 18.4554 11.7279 18.6262 14.4608 16.7906C14.6576 16.6582 14.894 16.4416 14.9262 16.2349C15.1155 15.0343 14.3345 13.5354 13.176 13.1269C12.02 12.721 10.7958 12.5068 9.60268 12.2086Z" fill="white" stroke="white" stroke-width="0.6"/>
<path fill-rule="evenodd" clip-rule="evenodd" d="M13.1552 6.78237C13.1676 8.69219 11.7417 10.1193 9.80464 10.1403C7.72278 10.1626 6.09515 8.6068 6.08773 6.58682C6.08154 4.74632 7.57796 3.11992 9.28727 3.10879C11.3654 3.09517 13.1416 4.78344 13.1552 6.78237ZM6.99376 6.62766C6.98757 8.05723 8.26614 9.23556 9.80711 9.21823C11.181 9.20214 12.238 8.1414 12.2294 6.78732C12.2207 5.36022 10.8332 4.01605 9.39246 4.0408C8.05572 4.06556 6.99995 5.20303 6.99376 6.62766Z" fill="white" stroke="white" stroke-width="0.6"/>
</svg>
