<svg width="21" height="21" viewBox="0 0 21 21" fill="none" xmlns="http://www.w3.org/2000/svg">
<path d="M8.81 8.81C8.45325 9.16488 8.25186 9.6468 8.25 10.15C8.25 10.6539 8.45018 11.1372 8.8065 11.4935C9.16282 11.8498 9.64609 12.05 10.15 12.05C10.6532 12.0481 11.1351 11.8467 11.49 11.49" stroke="white" stroke-width="1.3" stroke-linecap="round" stroke-linejoin="round"/>
<path d="M10.1501 4.44998C9.02272 4.44998 7.92069 4.78428 6.98333 5.4106C6.04597 6.03693 5.31538 6.92715 4.88396 7.96869C4.45254 9.01022 4.33966 10.1563 4.5596 11.262C4.77954 12.3677 5.32241 13.3833 6.11957 14.1805C6.91673 14.9776 7.93237 15.5205 9.03806 15.7405C10.1438 15.9604 11.2898 15.8475 12.3314 15.4161C13.3729 14.9847 14.2631 14.2541 14.8895 13.3167C15.5158 12.3794 15.8501 11.2773 15.8501 10.15" stroke="white" stroke-width="1.3" stroke-linecap="round" stroke-linejoin="round"/>
<path d="M10.15 0.649994C8.27111 0.649994 6.43438 1.20716 4.87211 2.25103C3.30984 3.29491 2.09221 4.7786 1.37317 6.5145C0.654141 8.2504 0.466009 10.1605 0.832569 12.0034C1.19913 13.8462 2.10392 15.5389 3.43251 16.8675C4.76111 18.1961 6.45385 19.1009 8.29667 19.4675C10.1395 19.834 12.0496 19.6459 13.7855 18.9268C15.5214 18.2078 17.0051 16.9902 18.049 15.4279C19.0929 13.8656 19.65 12.0289 19.65 10.15M13.2319 7.05531L11.1 9.19999" stroke="white" stroke-width="1.3" stroke-linecap="round" stroke-linejoin="round"/>
<path d="M19.09 3.994L15.85 4.45L16.306 1.21C16.3093 1.17236 16.3014 1.13459 16.2832 1.1015C16.2649 1.0684 16.2372 1.0415 16.2037 1.02422C16.1701 1.00693 16.1321 1.00006 16.0945 1.00448C16.057 1.00889 16.0217 1.02439 15.993 1.049L13.845 3.186C13.6244 3.40822 13.4621 3.68152 13.3726 3.9816C13.2831 4.28168 13.2691 4.59923 13.332 4.906L13.674 6.626L15.394 6.967C15.7008 7.02985 16.0183 7.0159 16.3184 6.9264C16.6185 6.8369 16.8918 6.67462 17.114 6.454L19.25 4.307C19.2747 4.27827 19.2902 4.24281 19.2946 4.20518C19.299 4.16755 19.2921 4.12946 19.2746 4.09582C19.2572 4.06217 19.2302 4.0345 19.1969 4.01636C19.1636 3.99821 19.1257 3.99043 19.088 3.994" stroke="white" stroke-width="1.3" stroke-linecap="round" stroke-linejoin="round"/>
</svg>
