<svg width="21" height="21" viewBox="0 0 21 21" fill="none" xmlns="http://www.w3.org/2000/svg">
<path d="M0.650024 10.15C0.650024 5.67202 0.650024 3.43202 2.04102 2.04102C3.43202 0.650024 5.67102 0.650024 10.15 0.650024C14.628 0.650024 16.868 0.650024 18.259 2.04102C19.65 3.43202 19.65 5.67102 19.65 10.15C19.65 14.628 19.65 16.868 18.259 18.259C16.868 19.65 14.629 19.65 10.15 19.65C5.67202 19.65 3.43202 19.65 2.04102 18.259C0.650024 16.868 0.650024 14.629 0.650024 10.15Z" stroke="#536471" stroke-width="1.3" stroke-linecap="round" stroke-linejoin="round"/>
<path d="M8.15002 6.65002C8.15002 6.2522 7.99199 5.87067 7.71068 5.58936C7.42938 5.30806 7.04785 5.15002 6.65002 5.15002C6.2522 5.15002 5.87067 5.30806 5.58936 5.58936C5.30806 5.87067 5.15002 6.2522 5.15002 6.65002C5.15002 7.04785 5.30806 7.42938 5.58936 7.71068C5.87067 7.99199 6.2522 8.15002 6.65002 8.15002C7.04785 8.15002 7.42938 7.99199 7.71068 7.71068C7.99199 7.42938 8.15002 7.04785 8.15002 6.65002ZM8.15002 6.65002H15.15M12.15 13.65C12.15 13.2522 12.3081 12.8707 12.5894 12.5894C12.8707 12.3081 13.2522 12.15 13.65 12.15C14.0478 12.15 14.4294 12.3081 14.7107 12.5894C14.992 12.8707 15.15 13.2522 15.15 13.65C15.15 14.0478 14.992 14.4294 14.7107 14.7107C14.4294 14.992 14.0478 15.15 13.65 15.15C13.2522 15.15 12.8707 14.992 12.5894 14.7107C12.3081 14.4294 12.15 14.0478 12.15 13.65ZM12.15 13.65H5.15002" stroke="#536471" stroke-width="1.3" stroke-linecap="round" stroke-linejoin="round"/>
</svg>
