<svg width="46" height="45" viewBox="0 0 46 45" fill="none" xmlns="http://www.w3.org/2000/svg">
<path fill-rule="evenodd" clip-rule="evenodd" d="M11.4713 31.0082C11.2175 26.8225 10.4302 22.7084 10.5144 18.4729C9.65626 18.5269 8.74161 18.5629 7.83119 18.6458C5.46873 18.8612 3.10893 19.1046 0.745859 19.3129C0.522578 19.3326 0.255392 19.2253 0.0664622 19.0937C-0.0169957 19.0356 -0.0237685 18.7186 0.0570284 18.6102C0.164798 18.4655 0.384933 18.3432 0.568057 18.3249C2.77836 18.1056 4.98951 17.8932 7.20296 17.7095C8.3473 17.6144 9.49624 17.5698 10.6441 17.5261C10.9055 17.5162 11.0084 17.4069 11.0997 17.1884C11.4499 16.3515 11.9662 15.6334 12.6889 15.0748C14.1578 13.9394 16.1186 14.0613 17.3361 15.3563C17.8227 15.8739 18.0463 16.4992 18.0887 17.1594C19.4968 17.1594 20.8694 17.1664 22.2416 17.1467C22.3575 17.145 22.5112 16.9862 22.5786 16.8627C22.9916 16.106 23.5247 15.4641 24.2514 14.9886C26.3097 13.6424 29.1553 14.8648 29.3765 17.2984C30.4835 17.3406 31.5971 17.389 32.7111 17.4151C32.8029 17.4173 32.9424 17.2889 32.9855 17.1893C33.9303 14.9995 34.8725 12.8085 35.7851 10.6053C35.8559 10.4346 35.7152 10.17 35.6572 9.95322C35.2262 8.3443 33.4329 7.71292 32.0959 8.697C31.456 9.16799 30.9413 8.95282 30.7629 8.1688C30.7239 7.99729 30.5723 7.82928 30.4314 7.70676C29.8521 7.20335 29.1118 7.15412 28.3963 7.48831C28.192 7.58375 27.8768 7.63092 27.7 7.53645C27.5604 7.46182 27.475 7.1234 27.5066 6.92455C27.5717 6.51633 27.6817 6.09952 27.86 5.72771C29.059 3.22446 31.1579 1.86531 33.7627 1.19462C35.5194 0.742373 37.2909 0.742615 39.0586 1.16571C39.1463 1.18664 39.2373 1.19353 39.3764 1.21458C39.4747 0.956703 39.5756 0.694475 39.6745 0.431522C39.7992 0.0996256 40.0525 -0.0813203 40.38 0.0356418C40.6949 0.148129 40.7439 0.459463 40.6519 0.763419C40.5738 1.02141 40.4657 1.27021 40.356 1.56304C40.518 1.64094 40.6609 1.71024 40.8045 1.77834C43.6532 3.12818 45.4469 5.28781 45.8949 8.46005C46.0478 9.54174 45.9082 10.6023 45.4892 11.6159C45.3034 12.0652 45.0018 12.1626 44.637 11.8905C43.6606 11.1625 42.6431 11.2094 41.6095 11.7274C41.0029 12.0313 40.8602 11.9926 40.6055 11.3519C40.087 10.0473 38.7081 9.34338 37.4038 9.73394C37.2473 9.78086 37.0597 9.89589 36.9905 10.0321C36.7242 10.5562 36.4936 11.0991 36.2614 11.64C35.4644 13.4973 34.6724 15.3568 33.8641 17.2493C33.9782 17.2797 34.058 17.3142 34.1399 17.3211C37.1363 17.5738 40.1332 17.8239 43.1298 18.0749C43.2201 18.0824 43.3098 18.0976 43.3999 18.1071C43.754 18.1441 43.9778 18.3278 43.9413 18.6951C43.9034 19.0741 43.6366 19.1696 43.2846 19.1365C40.9529 18.9166 38.6244 18.6276 36.2873 18.504C31.9862 18.2765 27.6799 18.149 23.3763 17.9727C23.1067 17.9617 23.0169 18.0696 22.954 18.3161C22.6793 19.3926 22.7351 20.4823 22.8485 21.5631C23.1502 24.4331 23.4966 27.2981 23.8101 30.1669C23.8466 30.5018 23.9786 30.6427 24.2983 30.7536C25.2102 31.0697 26.1062 31.4323 27.0021 31.7928C28.2592 32.2988 29.4743 32.2313 30.6712 31.5948C31.3505 31.2337 32.0385 30.8854 32.7393 30.5684C34.0699 29.9664 35.3579 30.0755 36.5701 30.8944C36.9824 31.1729 37.3679 31.4915 37.7642 31.7938C38.1725 32.1053 38.5667 32.437 38.9889 32.728C39.8944 33.3516 40.8128 33.4157 41.7896 32.8313C42.2339 32.5656 42.7488 32.3924 43.2534 32.2603C43.7502 32.1302 44.2726 32.209 44.6513 32.5836C44.7958 32.7266 44.8997 33.1203 44.8098 33.2392C44.688 33.4002 44.2957 33.5369 44.1361 33.4552C43.6628 33.2133 43.2544 33.3485 42.8315 33.5133C42.6504 33.5838 42.4828 33.6941 42.3177 33.7998C40.9948 34.6475 39.6858 34.5754 38.4161 33.7049C37.7815 33.2697 37.1663 32.7999 36.5816 32.2997C35.2971 31.2012 33.9491 31.0711 32.4882 31.9189C31.9926 32.2065 31.4681 32.4439 30.9604 32.711C29.5762 33.4393 28.1582 33.479 26.7124 32.9216C26.0787 32.6772 25.4448 32.4327 24.8204 32.1656C23.5133 31.6062 22.1908 31.5502 20.8395 31.9858C19.8917 32.2913 18.9374 32.577 17.989 32.8806C16.6451 33.311 15.3118 33.2622 13.9816 32.8205C13.423 32.6348 12.861 32.4595 12.3007 32.2793C11.2543 31.9431 10.2212 31.9705 9.19615 32.3766C8.57881 32.621 7.96231 32.8711 7.3319 33.0775C4.89468 33.8754 2.02143 33.0112 0.412027 31.0137C0.105893 30.6335 0.0871457 30.3589 0.37308 30.1521C0.717072 29.9034 0.982685 30.0455 1.23354 30.3315C2.85541 32.1799 5.21049 32.7497 7.53341 31.905C8.46487 31.566 9.41774 31.2799 10.375 31.0218C10.6979 30.9349 11.0642 31.0082 11.4713 31.0082ZM42.1752 3.72448C40.8649 2.66541 39.2785 2.04637 37.5288 1.8676C35.0844 1.61796 32.8045 2.08955 30.797 3.5745C29.8867 4.24785 29.1749 5.09368 28.6862 6.20004C29.645 6.12009 30.4635 6.35643 31.1317 6.9231C31.6983 6.07739 32.1826 5.21463 32.8037 4.46532C33.4941 3.63232 34.3038 2.89716 35.0733 2.13116C35.3397 1.86603 35.6522 1.84934 35.8987 2.15741C36.1356 2.4535 36.0078 2.72262 35.7534 2.94832C35.6516 3.03855 35.5453 3.12358 35.4433 3.21345C34.127 4.37328 33.0165 5.69252 32.2318 7.36663C33.8096 6.78775 35.0604 7.24411 36.047 8.37841C36.4452 7.55569 36.8362 6.74191 37.2329 5.93067C37.3823 5.62502 37.6141 5.42642 37.9583 5.60543C38.3364 5.80198 38.2402 6.10642 38.0882 6.42199C37.7676 7.08747 37.4624 7.76046 37.1604 8.43465C37.0987 8.57242 37.0791 8.72906 37.0244 8.93625C38.662 8.48558 39.981 8.91774 41.0866 10.0802C41.8743 8.03732 42.0741 5.93902 42.1752 3.72448ZM12.2744 27.5097C15.7295 27.5097 19.1203 27.5097 22.5505 27.5097C22.5327 27.2722 22.5246 27.0648 22.5006 26.8591C22.3636 25.69 22.2045 24.523 22.0942 23.3515C22.0591 22.9802 21.9391 22.8796 21.5744 22.8812C18.4784 22.8949 15.3822 22.889 12.2862 22.889C12.1394 22.889 11.9927 22.889 11.8108 22.889C11.9683 24.4597 12.12 25.9712 12.2744 27.5097ZM11.644 21.8422C15.0907 21.8422 18.4832 21.8422 21.889 21.8422C21.889 20.5974 21.889 19.3847 21.889 18.1458C21.9112 18.1518 21.8685 18.1291 21.8262 18.1302C18.5624 18.2084 15.2986 18.2904 12.0347 18.3658C11.7657 18.372 11.6453 18.494 11.6447 18.7479C11.6428 19.7711 11.644 20.7945 11.644 21.8422ZM12.336 28.5948C12.4208 29.4166 12.4907 30.1949 12.5931 30.9689C12.6066 31.0706 12.772 31.1933 12.8915 31.2331C13.4345 31.4139 13.9881 31.5622 14.5343 31.7337C15.4468 32.0206 16.3727 32.0986 17.3004 31.8545C18.4218 31.5596 19.5281 31.2071 20.6506 30.9166C21.3571 30.7339 22.0812 30.6193 22.8381 30.4657C22.775 29.8544 22.7107 29.2309 22.645 28.5948C19.2041 28.5948 15.8119 28.5948 12.336 28.5948ZM43.0617 4.73844C43.064 6.79936 42.7038 8.72131 42.0193 10.5891C42.5172 10.5659 42.9678 10.5025 43.411 10.536C43.8652 10.5703 44.3119 10.6996 44.7614 10.7873C45.3725 9.05067 44.5377 5.9897 43.0617 4.73844ZM12.176 17.4347C13.809 17.3636 15.3997 17.2943 16.9879 17.2252C16.9871 16.21 16.1944 15.4504 15.0241 15.2884C13.8951 15.1321 12.516 16.148 12.176 17.4347ZM23.5763 17.1005C25.1648 17.1005 26.6941 17.1005 28.2236 17.1005C28.1628 16.2532 27.4639 15.5553 26.4808 15.3677C25.4363 15.1685 24.1588 15.8998 23.5763 17.1005Z" fill="white"/>
<path fill-rule="evenodd" clip-rule="evenodd" d="M11.9222 5.78127C11.915 8.06101 10.1666 9.8539 7.94533 9.85946C5.63935 9.86527 3.73989 8.05943 3.75066 5.87138C3.76142 3.68733 5.77711 1.75328 8.04487 1.75134C10.1541 1.74965 11.9289 3.59431 11.9222 5.78127ZM7.88061 8.82059C9.61158 8.82846 10.9082 7.49349 10.9013 5.71039C10.8951 4.10159 9.60166 2.74123 8.07958 2.7428C6.38442 2.74449 4.77114 4.27831 4.75638 5.90235C4.74151 7.52845 6.11639 8.81261 7.88061 8.82059Z" fill="white"/>
<path fill-rule="evenodd" clip-rule="evenodd" d="M14.6492 37.9774C14.4105 37.9053 14.2656 37.8654 14.1233 37.8179C13.1935 37.5074 12.2636 37.1969 11.3349 36.8829C10.4221 36.5741 9.57409 36.6982 8.71919 37.1454C8.01706 37.5127 7.27997 37.9028 6.51457 38.0409C4.69664 38.3691 3.20033 37.6889 2.03748 36.2657C1.82557 36.0061 1.79618 35.7249 2.06506 35.5052C2.34627 35.2754 2.59374 35.4159 2.80832 35.6587C4.2115 37.2479 5.86082 37.5365 7.71564 36.5242C7.92743 36.4085 8.14672 36.3068 8.35996 36.1936C9.35541 35.6649 10.3914 35.5426 11.4694 35.8937C12.516 36.2345 13.5605 36.5823 14.6035 36.9342C14.9154 37.0394 15.1667 37.2541 15.0793 37.5968C15.0371 37.7613 14.7775 37.8704 14.6492 37.9774Z" fill="white"/>
<path fill-rule="evenodd" clip-rule="evenodd" d="M20.1853 36.2205C20.4856 36.3288 20.6888 36.3874 20.8797 36.4734C21.4163 36.7153 21.9572 36.9505 22.4796 37.2209C23.6435 37.8235 24.7565 37.8534 25.9117 37.14C27.1367 36.3836 28.4768 36.3033 29.8403 36.7544C30.1394 36.8533 30.4273 36.9938 30.7067 37.1411C30.9832 37.2867 31.1856 37.5165 31.0025 37.8379C30.8337 38.1345 30.5538 38.0841 30.2854 37.9502C29.2663 37.4407 28.2051 37.3159 27.1209 37.6818C26.6812 37.8303 26.2696 38.0681 25.8559 38.2858C24.8684 38.8053 23.8498 38.8376 22.8325 38.4326C21.8939 38.0591 20.9723 37.6392 20.0632 37.1984C19.9163 37.1272 19.7867 36.8298 19.8083 36.6567C19.8286 36.4936 20.0588 36.3567 20.1853 36.2205Z" fill="white"/>
<path fill-rule="evenodd" clip-rule="evenodd" d="M17.934 43.1011C17.9433 43.6162 17.5002 43.9226 17.1846 43.6709C16.3251 42.9857 15.3606 43.199 14.4019 43.2275C13.6215 43.2507 12.8306 43.2775 12.0615 43.1745C11.6605 43.1209 11.2737 42.8227 10.9238 42.5743C10.6706 42.3947 10.6716 42.0936 10.8822 41.8522C11.0763 41.6295 11.3525 41.577 11.5713 41.7741C12.2442 42.3805 13.0385 42.2948 13.8446 42.2533C14.7151 42.2085 15.5931 42.1522 16.458 42.2218C16.8785 42.2557 17.287 42.5466 17.6789 42.7615C17.8155 42.8365 17.8854 43.0328 17.934 43.1011Z" fill="white"/>
<path fill-rule="evenodd" clip-rule="evenodd" d="M29.8384 42.7222C30.0491 42.5029 30.1629 42.2891 30.3244 42.2431C30.4906 42.1955 30.7995 42.2477 30.8788 42.3673C31.2042 42.8568 31.5864 42.7688 32.0228 42.5906C32.4949 42.3974 32.965 42.1796 33.4572 42.0595C34.1832 41.8824 34.8838 42.2148 35.1565 42.7789C35.2957 43.0669 35.3178 43.3341 35.0239 43.5386C34.7248 43.7467 34.4841 43.6448 34.2907 43.3718C34.0399 43.0175 33.7064 43.0499 33.3637 43.1832C32.9713 43.3358 32.5915 43.5218 32.1967 43.6672C31.6468 43.8699 31.0805 43.873 30.59 43.5431C30.3112 43.3556 30.1198 43.0381 29.8384 42.7222Z" fill="white"/>
<path fill-rule="evenodd" clip-rule="evenodd" d="M37.4437 38.9266C36.8038 38.7669 36.1585 38.6252 35.5261 38.4397C35.2037 38.3453 35.001 38.1018 35.1534 37.7426C35.2941 37.411 35.5523 37.3341 35.899 37.4707C36.6915 37.7825 37.5099 37.8401 38.347 37.6792C38.6946 37.6124 39.0368 37.6044 39.1134 38.0685C39.1849 38.5018 38.9148 38.6699 38.5462 38.727C38.1888 38.7824 37.8285 38.8184 37.4695 38.8631C37.4609 38.8841 37.4522 38.9054 37.4437 38.9266Z" fill="white"/>
<path fill-rule="evenodd" clip-rule="evenodd" d="M40.2054 44.3829C39.8999 44.2513 39.5678 44.1841 39.3526 43.9884C39.2147 43.863 39.1435 43.4776 39.2362 43.3367C39.3355 43.1861 39.713 43.0719 39.8796 43.1452C40.1735 43.2744 40.3969 43.2537 40.6891 43.1797C40.8686 43.1341 41.2097 43.2406 41.2797 43.3793C41.3553 43.5288 41.268 43.8852 41.1295 43.9912C40.8816 44.1806 40.5417 44.2499 40.2054 44.3829Z" fill="white"/>
</svg>
