<svg width="22" height="22" viewBox="0 0 22 22" fill="none" xmlns="http://www.w3.org/2000/svg">
<path d="M21.0179 17.2715L17.1666 10.1494C17.5595 9.25768 17.7794 8.27215 17.7794 7.2353C17.7794 3.23923 14.5398 0 10.5441 0C6.54733 0 3.3081 3.23956 3.3081 7.2353C3.3081 8.29716 3.53877 9.30473 3.94943 10.2129L0.081042 17.2682C-0.0436911 17.495 -0.0229605 17.7747 0.133012 17.9816C0.289314 18.188 0.553218 18.285 0.805254 18.2258L4.10865 17.468L5.23929 20.6171C5.32748 20.8619 5.55091 21.0317 5.80988 21.0508C5.82668 21.0521 5.84278 21.0527 5.85858 21.0527C5.97758 21.0527 6.09434 21.0204 6.19644 20.9593C6.29854 20.8981 6.38215 20.8105 6.43837 20.7056L9.80495 14.4335C10.0504 14.4583 10.297 14.4707 10.5437 14.4706C10.7724 14.4706 10.9981 14.4588 11.2212 14.4377L14.6608 20.7105C14.7217 20.8217 14.8134 20.913 14.9249 20.9733C15.0364 21.0336 15.1629 21.0604 15.2893 21.0504C15.5476 21.0297 15.7701 20.8602 15.8576 20.6167L16.9882 17.4677L20.2916 18.2255C20.545 18.2867 20.8063 18.1883 20.9626 17.9826C21.1195 17.7773 21.1406 17.4989 21.0178 17.2715H21.0179ZM5.97831 18.7806L5.15036 16.4739C5.03717 16.1603 4.70879 15.9777 4.38366 16.055L1.94042 16.6154L4.72527 11.536C5.64235 12.7749 6.94541 13.7095 8.45677 14.1642L5.97831 18.7806ZM4.63015 7.23528C4.63015 3.97465 7.28335 1.3218 10.5443 1.3218C13.8049 1.3218 16.4578 3.97465 16.4578 7.23528C16.4578 10.4959 13.8049 13.1494 10.5443 13.1494C7.283 13.1494 4.63015 10.4959 4.63015 7.23528ZM16.7131 16.055C16.3867 15.978 16.0596 16.1603 15.9464 16.4738L15.1129 18.7973L12.5801 14.179C14.1316 13.7246 15.4663 12.7654 16.3952 11.4903L19.1685 16.618L16.7131 16.055Z" fill="white"/>
<path d="M10.5482 9.66075V4.34671L9.48535 4.87811M10.5482 9.66075H11.611M10.5482 9.66075H9.48535" stroke="white" stroke-linecap="round" stroke-linejoin="round"/>
</svg>
