<svg width="22" height="22" viewBox="0 0 22 22" fill="none" xmlns="http://www.w3.org/2000/svg">
<path d="M13.9421 18.9089H8.05779M13.9421 18.9089V10.6708C13.9421 10.5148 13.8801 10.3651 13.7698 10.2547C13.6594 10.1444 13.5098 10.0824 13.3537 10.0824H8.64623C8.49016 10.0824 8.34049 10.1444 8.23014 10.2547C8.11979 10.3651 8.05779 10.5148 8.05779 10.6708V18.9089M13.9421 18.9089H19.238C19.3941 18.9089 19.5438 18.8469 19.6541 18.7365C19.7645 18.6262 19.8265 18.4765 19.8265 18.3205V16.0648C19.8265 15.9087 19.7645 15.7591 19.6541 15.6487C19.5438 15.5384 19.3941 15.4764 19.238 15.4764H14.5306C14.3745 15.4764 14.2248 15.5384 14.1145 15.6487C14.0041 15.7591 13.9421 15.9087 13.9421 16.0648V18.9089ZM8.05779 18.9089V14.1034C8.05779 13.9473 7.9958 13.7976 7.88545 13.6873C7.77509 13.5769 7.62542 13.5149 7.46936 13.5149H2.76189C2.60583 13.5149 2.45616 13.5769 2.34581 13.6873C2.23546 13.7976 2.17346 13.9473 2.17346 14.1034V18.3205C2.17346 18.4765 2.23546 18.6262 2.34581 18.7365C2.45616 18.8469 2.60583 18.9089 2.76189 18.9089H8.05779ZM9.82898 3.32816L10.7205 1.43831C10.7445 1.38428 10.7837 1.33839 10.8333 1.30618C10.8829 1.27398 10.9408 1.25684 11 1.25684C11.0591 1.25684 11.117 1.27398 11.1666 1.30618C11.2162 1.33839 11.2554 1.38428 11.2795 1.43831L12.1719 3.32816L14.1647 3.63316C14.4207 3.67239 14.5227 4.00192 14.3374 4.19021L12.8957 5.6613L13.236 7.73847C13.2792 8.00522 13.0124 8.20921 12.7829 8.0827L11 7.10198L9.21701 8.0827C8.9885 8.20823 8.72076 8.00522 8.76391 7.73847L9.10422 5.6613L7.66256 4.19021C7.47623 4.00192 7.5792 3.67239 7.83419 3.63316L9.82898 3.32816Z" stroke="white" stroke-width="1.3" stroke-linecap="round" stroke-linejoin="round"/>
</svg>
