<svg width="43" height="48" viewBox="0 0 43 48" fill="none" xmlns="http://www.w3.org/2000/svg">
<mask id="mask0_1_745" style="mask-type:alpha" maskUnits="userSpaceOnUse" x="0" y="0" width="43" height="48">
<path fill-rule="evenodd" clip-rule="evenodd" d="M19.6182 41.4555C17.9702 42.1632 16.3254 42.1203 14.677 41.8759C12.6327 41.5732 10.5915 41.2451 8.55623 40.8865C7.98238 40.7854 7.4341 40.5394 6.80809 40.3387C7.54291 41.8635 8.36238 43.2681 9.39677 44.5351C9.87248 45.1179 10.4156 45.6456 10.9285 46.1979C10.9938 46.2683 11.1146 46.3353 11.1173 46.4073C11.1263 46.6538 11.1715 46.9476 11.059 47.1382C10.8989 47.409 10.6019 47.3149 10.3865 47.1403C8.35441 45.4939 6.46766 43.7037 5.18584 41.3897C1.56457 34.8527 1.67671 28.3686 5.44855 21.9076C6.38159 20.3096 7.10664 18.59 7.9274 16.926C6.78086 16.5546 5.67324 16.2801 4.6382 15.8364C3.64479 15.4104 2.63827 14.9222 1.79182 14.2632C-0.767446 12.2705 -0.54366 8.95377 2.19751 7.21513C3.21585 6.56934 4.34761 6.22891 5.51921 5.99524C5.89844 5.9197 6.16705 6.03545 6.24709 6.41943C6.32468 6.79172 6.08818 6.9758 5.76111 7.07395C5.02539 7.29452 4.25422 7.44007 3.56617 7.76277C2.95699 8.04861 2.35758 8.45468 1.90011 8.94439C0.737 10.1893 0.800076 11.8085 1.96332 13.0565C2.05093 13.1503 2.13842 13.2461 2.23708 13.3276C4.01566 14.7926 6.1835 15.3144 8.35763 15.9118C8.98029 14.3829 9.40988 12.8663 9.60219 11.2813C9.9177 8.6804 9.23773 6.32012 7.88835 4.12287C7.25887 3.0976 6.60846 2.08491 5.95213 1.0766C5.74466 0.757749 5.62352 0.429908 5.97526 0.190451C6.3162 -0.0416841 6.61334 0.144203 6.8158 0.476797C7.66623 1.87372 8.58334 3.23467 9.35541 4.67347C11.0525 7.83664 10.9987 11.1357 9.9308 14.4776C9.77009 14.9808 9.59551 15.4798 9.40859 16.0368C10.8583 16.357 12.3102 16.4021 13.8682 16.3299C13.4335 15.7476 13.0547 15.2375 12.6726 14.7296C12.4448 14.4269 12.2659 14.1216 12.655 13.8143C12.9611 13.5724 13.2783 13.6593 13.5848 14.0589C14.1809 14.8359 14.7761 15.6135 15.3687 16.393C15.7834 16.9386 15.78 17.1653 15.2365 17.5455C14.2513 18.2347 13.2395 18.8856 12.2378 19.5513C11.9351 19.7525 11.6488 19.7341 11.4455 19.4214C11.2171 19.0701 11.392 18.8194 11.7039 18.6249C12.3567 18.2178 13.0076 17.808 13.7098 17.3677C12.1266 17.2433 10.6084 17.1241 9.03296 17.0003C8.45744 18.1977 7.85045 19.4603 7.22149 20.769C11.1569 22.4646 15.2291 23.4673 19.4576 23.8347C24.4101 24.2649 29.2824 23.8257 34.1204 22.4376C33.8986 21.9876 33.7027 21.5881 33.5053 21.1893C32.8434 19.8533 32.1883 18.5137 31.5073 17.1874C31.4364 17.0496 31.1978 16.8936 31.0579 16.9114C28.8533 17.1892 26.6423 17.2605 24.4241 17.178C24.4005 17.1771 24.3756 17.208 24.3076 17.2529C24.7286 17.6561 25.1435 18.0483 25.553 18.4462C25.9153 18.7985 25.9851 19.1331 25.7184 19.3545C25.3934 19.6244 25.0806 19.5581 24.7765 19.2734C24.0146 18.5601 23.2358 17.8651 22.4722 17.1533C22.0204 16.7321 22.0439 16.3943 22.5283 16.0011C23.326 15.3535 24.1222 14.7041 24.9231 14.0603C25.3048 13.7534 25.6158 13.7504 25.8518 14.0349C26.0811 14.3112 26.0089 14.631 25.6357 14.9398C25.2184 15.285 24.7951 15.6229 24.3549 15.9799C25.2105 16.2715 28.8369 16.2184 30.9121 15.8911C30.8464 15.7091 30.7861 15.5372 30.7225 15.3664C30.1154 13.7355 29.661 12.0681 29.5722 10.3208C29.4539 7.99208 30.066 5.83607 31.2099 3.83074C31.8851 2.64733 32.6345 1.50618 33.3545 0.348462C33.4213 0.241195 33.4997 0.0951303 33.6014 0.0655835C33.7846 0.0125278 34.0375 -0.0406562 34.1716 0.0455433C34.3034 0.130201 34.3779 0.388543 34.377 0.570063C34.376 0.72589 34.2424 0.886855 34.1508 1.03523C33.5613 1.99075 32.963 2.94113 32.3753 3.89793C30.3779 7.14949 30.0847 10.5729 31.3521 14.1508C31.5387 14.678 31.7341 15.202 31.9624 15.8292C33.3375 15.489 34.7146 15.2406 36.0257 14.7972C37.2461 14.3846 38.4215 13.8123 39.5648 13.2115C40.004 12.9806 40.3755 12.5231 40.6442 12.0866C41.1516 11.2624 40.9963 10.357 40.1816 9.84056C39.4354 9.36768 38.5706 9.08095 37.7537 8.7224C37.5794 8.64597 37.3335 8.66575 37.214 8.54705C37.0563 8.39045 36.8719 8.10757 36.9188 7.94096C36.9657 7.77421 37.3177 7.5431 37.4771 7.58203C38.7417 7.88995 39.9976 8.25711 41.0033 9.14364C42.2128 10.2096 42.3795 11.715 41.4621 13.0371C40.7549 14.0564 39.7259 14.6226 38.6102 15.0802C36.5997 15.9047 34.5221 16.4864 32.3126 16.848C32.5349 17.3341 32.7301 17.7854 32.9453 18.2272C33.7455 19.8704 34.548 21.5124 35.3572 23.1512C37.1364 26.754 37.4347 30.514 36.5893 34.4064C35.6662 38.6564 33.9859 42.5518 31.2237 45.9422C30.8396 46.4137 30.3926 46.8341 29.9708 47.2745C29.7119 47.5448 29.4083 47.6796 29.0826 47.4118C28.845 47.2165 28.9277 46.7722 29.2475 46.4838C30.8327 45.0541 32.002 43.32 32.9673 41.4349C33.0174 41.3372 33.0586 41.235 33.1474 41.0393C31.0707 41.6906 29.0505 42.2764 26.9443 42.3369C24.8587 42.3967 22.7383 42.7124 20.6553 41.8041C20.6465 41.9704 20.6307 42.1327 20.6305 42.2949C20.6284 43.676 20.6297 45.0568 20.6285 46.438C20.6285 46.5822 20.6684 46.7553 20.6039 46.8643C20.5012 47.038 20.3205 47.2942 20.1837 47.2876C19.9984 47.2788 19.7873 47.0821 19.6573 46.9125C19.5769 46.8076 19.6193 46.603 19.6191 46.4431C19.6175 44.8062 19.6182 43.1691 19.6182 41.4555ZM5.48517 24.5611C5.26575 25.2653 5.00535 25.9894 4.81908 26.7322C4.66364 27.3522 4.55817 27.9901 4.49394 28.6265C4.2108 31.435 4.67443 34.1601 5.47476 36.8404C6.07353 38.8452 6.11657 38.9118 8.12883 39.5515C10.9972 40.4633 13.9759 40.7117 16.9569 40.8494C17.6967 40.8836 18.4566 40.5809 19.1996 40.4014C19.53 40.3215 19.7211 40.1165 19.7274 39.7109C19.7299 39.5421 20.0231 39.2572 20.1991 39.2451C20.3751 39.233 20.5777 39.4874 20.751 39.6444C20.7944 39.6838 20.7896 39.8021 20.7738 39.877C20.6924 40.2593 20.9049 40.4425 21.1994 40.6312C21.786 41.0067 22.4152 41.1971 23.1054 41.2041C23.523 41.2082 23.9417 41.1887 24.3576 41.2146C27.5534 41.414 30.6178 40.813 33.5924 39.6901C33.8117 39.6073 34.0446 39.3812 34.1353 39.1648C35.2225 36.5752 35.9462 33.8888 36.1563 31.0808C36.2665 29.6079 36.2282 28.1382 35.8517 26.651C31.6718 27.8552 27.4382 28.4681 23.1197 28.383C23.0264 29.1612 23.3948 29.6661 23.8008 30.1852C24.1705 30.6581 24.5451 31.1628 24.7553 31.7152C24.9998 32.3584 24.8812 33.0169 24.2979 33.5057C24.07 33.6968 23.836 33.7408 23.6059 33.5358C23.3691 33.3246 23.3152 33.06 23.5379 32.8143C23.8277 32.4946 23.7636 32.1566 23.6102 31.8291C23.4961 31.5856 23.3396 31.3515 23.16 31.151C22.4593 30.3679 21.9175 29.5174 21.9292 28.4115C20.6807 28.2919 19.4697 28.172 18.2573 28.0668C18.1517 28.0577 17.9901 28.1127 17.9351 28.1931C17.4831 28.8544 17.0076 29.5055 16.6228 30.2055C16.1767 31.0167 16.2912 31.4362 16.9205 32.1039C17.2147 32.4162 17.522 32.7426 17.715 33.1183C18.1031 33.8739 17.6814 34.7797 16.9157 34.9615C16.5196 35.0553 16.1654 34.8942 16.1081 34.5644C16.0416 34.1813 16.2266 33.955 16.6081 33.883C16.6626 33.8727 16.7113 33.8318 16.8692 33.749C16.5792 33.4344 16.3481 33.1379 16.0718 32.8922C15.2511 32.162 15.0755 31.263 15.4066 30.2677C15.5557 29.8193 15.8291 29.4085 16.0732 28.9966C16.274 28.658 16.5151 28.3433 16.7263 28.0358C14.8121 27.5493 12.9155 27.1465 11.0709 26.5764C9.2087 26.0008 7.39774 25.2591 5.48517 24.5611ZM34.6412 23.6219C25.1485 26.2138 15.8784 25.711 6.74373 22.0151C6.48449 22.5621 6.22923 23.1011 5.96318 23.6624C9.60296 25.3558 13.3121 26.5042 17.2865 27.0802C17.2477 26.8473 17.2146 26.6983 17.199 26.5477C17.0946 25.5355 17.5396 24.9919 18.4116 25.3894C18.6492 25.4978 18.9654 25.7236 18.9906 25.927C19.0162 26.1344 18.73 26.382 18.5766 26.6095C18.4653 26.7745 18.3484 26.9354 18.234 27.0982C18.2715 27.1479 18.309 27.1975 18.3465 27.2473C19.5858 27.3403 20.8251 27.4332 22.2049 27.5369C22.1326 27.1679 22.1056 26.8893 22.0203 26.6297C21.912 26.2999 22.0434 25.7304 22.3343 25.537C22.6867 25.3025 23.0354 25.3369 23.3477 25.6199C23.6634 25.906 23.6882 26.3298 23.4657 26.7122C23.3345 26.9377 23.2563 27.1944 23.1256 27.5054C27.3978 27.5917 31.4767 27.0124 35.5012 25.7722C35.2051 25.0321 34.9324 24.3501 34.6412 23.6219Z" fill="white"/>
</mask>
<g mask="url(#mask0_1_745)">
<circle cx="21.0237" cy="22.5332" r="26.752" fill="#EBECF0"/>
</g>
</svg>
