<svg width="48" height="44" viewBox="0 0 48 44" fill="none" xmlns="http://www.w3.org/2000/svg">
<path fill-rule="evenodd" clip-rule="evenodd" d="M14.2943 10.7233C13.8975 10.7572 13.5583 10.7862 13.254 10.8124C12.5056 13.54 10.8694 15.3346 8.10432 15.9481C6.50297 16.3034 4.94201 16.0249 3.56755 15.1492C1.27753 13.69 -0.0580281 11.6201 0.0019369 8.8282C0.06639 5.82983 2.42609 3.29384 5.57108 2.76089C8.40913 2.28005 11.3064 3.97615 12.3379 6.74763C12.4653 7.09009 12.6149 7.20142 12.9716 7.14145C13.4279 7.06466 13.8935 7.04334 14.3822 6.99547C14.3822 6.5433 14.3369 6.13576 14.3911 5.74169C14.5308 4.72503 15.2611 4.17125 16.2897 4.22087C16.4405 4.22823 16.641 4.14894 16.7439 4.03948C17.1954 3.55889 17.7259 3.35356 18.3822 3.44282C18.5155 3.46102 18.7034 3.4407 18.7934 3.35855C19.8011 2.43838 20.5176 2.36993 21.6249 3.11382C23.3458 2.11237 25.2503 3.14 25.4949 5.19614C25.5051 5.28191 25.5808 5.3819 25.6549 5.43501C26.3272 5.9171 27.057 5.69207 27.7656 5.56254C27.8741 5.54272 27.979 5.28715 28.0156 5.12471C28.2935 3.89424 28.8528 2.81774 29.7339 1.9139C32.7199 -1.14993 37.9286 -0.429472 39.9952 3.31878C40.8724 4.90991 41.2306 6.57322 40.7807 8.35734C39.6151 12.9781 33.7028 14.7012 30.2661 11.4099C29.6987 10.8666 29.2534 10.1969 28.7382 9.59728C28.6557 9.50141 28.4989 9.40953 28.3814 9.41526C28.0563 9.43085 27.7278 9.47598 27.4133 9.55801C27.29 9.59017 27.1685 9.73504 27.1041 9.85871C27.0348 9.99123 27.0316 10.1589 27.003 10.312C26.7734 11.5529 26.1063 12.4859 25.0112 13.105C24.4832 13.4036 23.9351 13.6664 23.4025 13.9571C22.8506 14.2585 22.5793 14.7337 22.7003 15.3543C22.8187 15.962 22.9702 16.5694 23.1731 17.154C24.1528 19.9747 25.0596 22.8254 26.4392 25.4891C26.7168 26.0251 27.0247 26.5451 27.3144 27.0646C30.7214 25.2525 34.1188 24.6959 37.6849 26.6972C37.8789 26.5532 38.1335 26.3567 38.3953 26.1703C40.9422 24.3599 43.7715 23.4744 46.9019 23.5805C47.1639 23.5894 47.4678 23.5532 47.5071 23.9268C47.5406 24.2463 47.2541 24.4809 46.8523 24.5081C45.9374 24.5703 45.0107 24.5655 44.1105 24.7169C41.9331 25.0832 39.9976 26.016 38.2874 27.4137C38.2162 27.472 38.1436 27.5286 38.06 27.5949C38.7996 28.8731 39.2479 30.2016 39.3114 31.645C39.3177 31.7845 39.3287 31.9266 39.3107 32.064C39.2706 32.3731 39.0574 32.5851 38.7759 32.523C38.5828 32.4806 38.3475 32.2537 38.2892 32.0612C38.1922 31.7417 38.2333 31.3825 38.1965 31.0422C38.0579 29.7557 37.4573 28.6465 36.8266 27.5534C36.7561 27.4313 36.5918 27.3534 36.4574 27.28C35.0486 26.5104 33.5285 26.3687 31.9677 26.5285C30.3137 26.6979 28.778 27.2006 27.4329 28.219C27.0681 28.4952 26.8305 28.4214 26.5433 28.0114C25.2917 26.2237 24.4205 24.2454 23.6851 22.2061C23.0362 20.4063 22.4341 18.5899 21.8169 16.7789C21.7267 16.5145 21.6517 16.2427 21.5968 15.9688C21.2825 14.402 21.6554 13.6183 23.0625 12.8634C23.5423 12.6061 24.0313 12.3644 24.5001 12.0888C25.1455 11.7094 25.5935 11.1597 25.7534 10.4182C25.9533 9.49081 26.1206 8.55655 26.3113 7.62691C26.4052 7.16876 26.2195 6.87068 25.8105 6.69452C25.1533 6.41153 24.4976 6.12417 23.83 5.86785C23.6783 5.80963 23.4101 5.80365 23.3227 5.89503C23.2251 5.99738 23.2275 6.24759 23.2641 6.41664C23.4102 7.09009 24.0818 7.49052 24.7892 7.44764C24.9862 7.43567 25.294 7.64 25.3734 7.82239C25.434 7.96177 25.2678 8.30647 25.1065 8.40957C24.8892 8.54845 24.5796 8.54297 24.352 8.59046C24.1332 8.98878 23.9512 9.40342 23.6902 9.75997C23.5603 9.93737 23.2924 10.0835 23.0741 10.1032C22.9178 10.1174 22.6683 9.93226 22.5943 9.77356C22.5338 9.64378 22.641 9.40566 22.7271 9.24397C22.9161 8.88867 23.1388 8.55132 23.2595 8.17408C22.9162 8.39524 22.5974 8.72274 22.2229 8.8095C21.7982 8.90799 21.5913 9.06233 21.4263 9.46775C21.1625 10.116 20.5909 10.3395 19.9015 10.2411C19.7517 10.2197 19.5336 10.3266 19.4225 10.4453C18.8741 11.0307 17.9625 11.17 17.3526 10.6607C17.0653 10.4207 16.7949 10.3756 16.463 10.4077C16.0763 10.4453 15.6886 10.4713 15.1879 10.5115C15.2796 11.3659 15.3142 12.2188 15.4712 13.0484C15.881 15.2147 16.1529 17.3906 16.0261 19.5965C15.7914 23.6753 16.7236 27.5168 18.1283 31.3175C18.9545 33.5526 20.4323 34.9669 22.4805 35.9876C24.9617 37.2245 27.5928 37.9218 30.3115 38.3527C32.4698 38.6947 34.6334 38.9679 36.8226 38.7278C37.5634 38.6467 38.3038 38.5245 39.0296 38.3569C39.474 38.2543 39.7647 38.3534 40.044 38.6999C40.9572 39.833 42.0505 40.756 43.4141 41.2919C44.03 41.5337 44.6941 41.6642 45.3455 41.8006C45.6598 41.8664 45.9287 41.9298 45.9959 42.2856C46.0658 42.6558 45.8201 42.822 45.5343 42.9479C44.8219 43.2617 44.0968 43.1402 43.3786 42.9847C41.8229 42.6479 40.619 41.7232 39.5411 40.6152C39.2026 40.2673 38.8807 40.1404 38.3678 40.1811C33.5941 40.5582 28.9066 40.0796 24.3662 38.5231C23.1983 38.1227 22.0672 37.5594 20.9998 36.9336C18.8454 35.6706 17.4364 33.772 16.8398 31.3527C16.2557 28.9843 15.7603 26.5917 15.3079 24.1941C15.1333 23.2689 15.12 22.2996 15.1449 21.3532C15.2245 18.3361 15.0214 15.3469 14.4504 12.3814C14.3488 11.8514 14.3463 11.3026 14.2943 10.7233ZM11.8837 9.10447C11.8861 6.13639 9.51518 3.78466 6.55072 3.73267C4.20921 3.69153 1.03518 5.56653 1.03967 9.10222C1.04353 12.1234 3.43715 14.5115 6.48851 14.5174C9.48514 14.5229 11.8812 12.1191 11.8837 9.10447ZM39.7591 6.44407C39.7589 3.4331 37.368 1.0436 34.3587 1.04684C31.4075 1.05008 28.9673 3.51637 28.9718 6.49094C28.9763 9.43222 31.3941 11.8877 34.2922 11.8942C37.3424 11.9011 39.7594 9.49181 39.7591 6.44407ZM21.2771 4.17026C21.0148 3.78292 20.6779 3.66174 20.2782 3.75424C19.8706 3.84861 19.7589 4.17287 19.6703 4.5475C19.3174 6.03964 19.768 7.48629 19.9016 8.94926C19.9123 9.06694 20.1393 9.21679 20.2888 9.25095C20.3829 9.27252 20.5782 9.1309 20.625 9.01919C20.7065 8.82484 20.7354 8.59745 20.738 8.38339C20.7442 7.8543 20.7112 7.32484 20.7158 6.79575C20.7238 5.88842 20.7765 4.9872 21.2771 4.17026ZM17.471 8.44697C17.6167 8.9136 17.7028 9.34121 17.8916 9.71721C17.9646 9.86269 18.2868 9.97888 18.4644 9.9451C18.5986 9.91954 18.7502 9.64353 18.7747 9.46276C18.8139 9.17553 18.7538 8.87483 18.7355 8.57974C18.6585 7.3403 18.5638 6.10173 18.5168 4.86104C18.5043 4.53129 18.3459 4.44004 18.1292 4.53865C17.915 4.63614 17.6945 4.83498 17.5976 5.04505C17.4862 5.28703 17.4803 5.58959 17.4759 5.86648C17.4624 6.73628 17.471 7.60634 17.471 8.44697ZM24.5094 4.87076C24.1543 4.50424 23.9083 4.18746 23.6017 3.9481C23.0764 3.53819 22.6849 3.66747 22.4285 4.28021C22.3988 4.35115 22.3608 4.41997 22.3168 4.48292C21.5761 5.54546 21.774 6.71185 21.8862 7.88273C22.3921 7.80867 22.5714 7.47182 22.4532 6.91007C22.1228 5.34038 22.7795 4.63053 24.5094 4.87076ZM14.7071 8.0509C14.1009 8.11698 13.5062 8.18168 12.9136 8.24626C12.9136 8.7539 12.9136 9.2244 12.9136 9.71409C13.7269 9.64602 14.5054 9.58082 15.2811 9.51587C15.0821 9.0081 14.9034 8.55182 14.7071 8.0509ZM16.5369 5.38913C15.8316 5.30224 15.5093 5.53374 15.5796 6.22465C15.6587 7.00195 15.9018 7.76429 16.0997 8.52626C16.1356 8.66452 16.2978 8.76999 16.4017 8.89041C16.4535 8.8767 16.5053 8.86286 16.557 8.84915C16.709 7.70657 16.3162 6.55789 16.5369 5.38913ZM27.8806 6.70873C27.7331 6.73778 27.6011 6.76384 27.586 6.7667C27.5345 7.40101 27.4906 7.9417 27.4437 8.51828C27.6742 8.48973 27.9111 8.46056 28.1613 8.42964C28.0676 7.85518 27.9809 7.32372 27.8806 6.70873Z" fill="white"/>
</svg>
