<svg width="26" height="25" viewBox="0 0 26 25" fill="none" xmlns="http://www.w3.org/2000/svg">
<path fill-rule="evenodd" clip-rule="evenodd" d="M11.0211 12.7898C7.91991 12.6255 4.91492 12.3572 1.90516 12.8242C1.47364 12.8913 0.972573 12.8533 0.572585 12.6929C0.0732143 12.4921 -0.108473 11.7614 0.0629064 11.1784C0.235363 10.5915 0.669198 10.298 1.38702 10.3085C3.71234 10.3422 6.0375 10.3859 8.36282 10.418C9.20418 10.4297 10.0457 10.4199 10.9429 10.4199C10.9429 10.0132 10.9284 9.68956 10.9454 9.36757C11.083 6.7418 11.213 4.11526 11.3821 1.49149C11.4084 1.08427 11.5826 0.671516 11.7569 0.292912C11.9193 -0.0595396 12.2147 -0.0936942 12.5024 0.189221C12.8265 0.507981 12.9938 0.867664 13.0158 1.35519C13.1451 4.23357 13.3153 7.1101 13.4751 9.98725C13.4813 10.0983 13.5233 10.2074 13.5511 10.3288C13.6584 10.346 13.7516 10.3769 13.8434 10.3735C16.9337 10.2602 20.0259 10.1826 23.1129 10.0111C24.6753 9.92417 25.6714 10.834 25.3549 12.2381C25.1654 13.0796 24.5173 13.5948 23.5784 13.5518C21.1408 13.4401 18.7042 13.2988 16.2678 13.1613C15.4663 13.1161 14.6662 13.0459 13.7893 12.9818C13.8934 14.0045 14.0059 14.969 14.0868 15.936C14.2696 18.1186 14.4636 20.3005 14.5986 22.486C14.6676 23.6032 13.8865 24.3274 12.769 24.3082C11.7021 24.2898 11.0463 23.5744 11.0432 22.4252C11.0357 19.4848 11.0284 16.5441 11.0212 13.6038C11.0206 13.3562 11.0211 13.1087 11.0211 12.7898Z" fill="white"/>
</svg>
